<svg xmlns="http://www.w3.org/2000/svg" xmlns:xlink="http://www.w3.org/1999/xlink" width="500" zoomAndPan="magnify" viewBox="0 0 375 374.999991" height="500" preserveAspectRatio="xMidYMid meet" version="1.2"><defs><clipPath id="96438176be"><path d="M 148 81 L 294 81 L 294 230.75 L 148 230.75 Z M 148 81 "/></clipPath><clipPath id="4997e0821e"><path d="M 44 84 L 153 84 L 153 232 L 44 232 Z M 44 84 "/></clipPath><clipPath id="c736924568"><path d="M 59.429688 74.605469 L 162.511719 225.808594 L 139.582031 241.441406 L 36.5 90.234375 Z M 59.429688 74.605469 "/></clipPath><clipPath id="dc582da551"><path d="M 59.429688 74.605469 L 162.511719 225.808594 L 139.582031 241.441406 L 36.5 90.234375 Z M 59.429688 74.605469 "/></clipPath><clipPath id="b1467e0c6d"><path d="M 126.203125 41.144531 L 225 41.144531 L 225 143.144531 L 126.203125 143.144531 Z M 126.203125 41.144531 "/></clipPath><clipPath id="49ae3c36d8"><path d="M 55 43 L 130 43 L 130 144 L 55 144 Z M 55 43 "/></clipPath><clipPath id="53c9ab189e"><path d="M 65.996094 36.96875 L 136.125 139.835938 L 120.632812 150.398438 L 50.503906 47.527344 Z M 65.996094 36.96875 "/></clipPath><clipPath id="473f41823f"><path d="M 65.996094 36.96875 L 136.125 139.835938 L 120.632812 150.398438 L 50.503906 47.527344 Z M 65.996094 36.96875 "/></clipPath><clipPath id="073dfa6d05"><path d="M 165.46875 135 L 350 135 L 350 324 L 165.46875 324 Z M 165.46875 135 "/></clipPath><clipPath id="d474befce7"><path d="M 34 138 L 172 138 L 172 326 L 34 326 Z M 34 138 "/></clipPath><clipPath id="75659f160c"><path d="M 53.472656 126.542969 L 184.011719 318.027344 L 154.886719 337.882812 L 24.34375 146.398438 Z M 53.472656 126.542969 "/></clipPath><clipPath id="79fd66cb8d"><path d="M 53.472656 126.542969 L 184.011719 318.027344 L 154.886719 337.882812 L 24.34375 146.398438 Z M 53.472656 126.542969 "/></clipPath></defs><g id="68b99282b1"><g clip-rule="nonzero" clip-path="url(#96438176be)"><path style=" stroke:none;fill-rule:nonzero;fill:#ff5757;fill-opacity:1;" d="M 244.898438 95.992188 C 246.664062 93.996094 248.332031 92.035156 250.066406 90.136719 C 255.625 83.988281 262.429688 80.75 270.867188 81.632812 C 281.5625 82.746094 291.050781 91.96875 292.816406 102.597656 C 294.191406 110.941406 291.246094 117.578125 285.226562 123.140625 C 283.394531 124.839844 281.5625 126.574219 279.734375 128.273438 C 279.308594 128.667969 279.046875 128.960938 279.371094 129.550781 C 279.796875 130.304688 279.535156 130.925781 278.949219 131.511719 C 276.917969 133.574219 274.957031 135.699219 272.898438 137.726562 C 272.4375 138.1875 271.71875 138.347656 271.128906 138.644531 C 270.707031 138.871094 270.183594 139.035156 269.886719 139.363281 C 254.023438 156.042969 238.226562 172.757812 222.363281 189.472656 C 216.050781 196.113281 209.738281 202.71875 203.457031 209.390625 C 202.246094 210.667969 200.871094 211.648438 199.203125 212.269531 C 184.160156 217.863281 169.113281 223.488281 154.066406 229.113281 C 152.726562 229.605469 151.386719 230.128906 150.011719 230.519531 C 149.519531 230.683594 148.605469 230.75 148.441406 230.488281 C 148.148438 230.03125 148.015625 229.214844 148.210938 228.691406 C 148.964844 226.398438 149.816406 224.175781 150.664062 221.953125 C 155.996094 208.117188 161.394531 194.3125 166.660156 180.445312 C 167.3125 178.710938 168.230469 177.207031 169.503906 175.867188 C 180.265625 164.320312 191.027344 152.742188 201.820312 141.195312 C 212.582031 129.714844 223.375 118.300781 234.171875 106.882812 C 234.660156 106.359375 234.792969 105.96875 234.367188 105.3125 C 233.546875 104.039062 233.613281 103.285156 234.660156 102.207031 C 236.394531 100.40625 238.191406 98.640625 239.960938 96.84375 C 241.332031 95.46875 242.902344 94.652344 244.898438 95.992188 Z M 257.882812 128.046875 C 257.457031 128.472656 257.097656 128.765625 256.804688 129.09375 C 250.425781 135.832031 244.082031 142.570312 237.734375 149.339844 C 226.777344 161.050781 215.851562 172.757812 204.894531 184.46875 C 203.128906 186.363281 201.363281 188.261719 199.597656 190.125 C 198.878906 190.878906 197.996094 191.042969 197.046875 190.648438 C 196.066406 190.257812 195.867188 189.40625 195.867188 188.457031 C 195.835938 186.988281 196.882812 186.167969 197.734375 185.253906 C 215.394531 166.347656 233.058594 147.410156 250.71875 128.503906 C 251.898438 127.230469 253.074219 125.984375 254.351562 124.675781 C 252.8125 123.304688 251.375 122.027344 249.738281 120.554688 C 249.28125 121.113281 248.953125 121.570312 248.5625 121.996094 C 231.617188 140.019531 214.742188 158.039062 197.863281 176.03125 C 196 178.023438 194.136719 180.050781 192.171875 181.949219 C 191.222656 182.867188 189.851562 182.667969 188.867188 181.65625 C 188.050781 180.804688 188.050781 179.660156 188.933594 178.644531 C 189.589844 177.925781 190.277344 177.238281 190.929688 176.550781 C 209.082031 157.058594 227.269531 137.566406 245.421875 118.039062 C 245.652344 117.808594 245.847656 117.515625 246.140625 117.1875 C 243.328125 114.765625 240.613281 112.410156 237.769531 109.925781 C 215.851562 133.019531 194.101562 156.011719 172.515625 179.496094 C 173.300781 179.757812 173.726562 179.921875 174.152344 180.050781 C 176.277344 180.609375 178.402344 181.164062 180.527344 181.71875 C 182.066406 182.144531 182.097656 182.179688 181.871094 183.8125 C 181.574219 186.039062 181.347656 188.261719 180.921875 190.453125 C 180.691406 191.664062 181.117188 191.957031 182.164062 192.15625 C 185.140625 192.777344 188.117188 193.460938 191.09375 194.183594 C 192.730469 194.574219 193.1875 195.523438 192.628906 197.125 C 191.878906 199.351562 191.125 201.574219 190.308594 203.796875 C 190.046875 204.582031 190.113281 205.007812 190.996094 205.238281 C 193.316406 205.828125 195.605469 206.480469 197.929688 207.035156 C 198.355469 207.136719 199.007812 206.90625 199.304688 206.613281 C 204.894531 200.820312 210.457031 195.03125 215.953125 189.210938 C 231.226562 173.085938 246.46875 156.929688 261.710938 140.800781 C 263.183594 139.234375 264.652344 137.664062 266.222656 135.996094 C 263.476562 133.34375 260.730469 130.726562 257.882812 128.046875 Z M 187.625 198.269531 C 184.289062 197.550781 181.148438 196.898438 178.011719 196.242188 C 175.71875 195.753906 175.296875 195.195312 175.65625 192.90625 C 175.949219 191.042969 176.242188 189.179688 176.570312 187.3125 C 176.765625 186.363281 176.636719 185.808594 175.523438 185.613281 C 174.214844 185.351562 172.90625 184.957031 171.632812 184.5 C 170.683594 184.171875 170.226562 184.304688 169.832031 185.320312 C 167.085938 192.382812 164.304688 199.414062 161.492188 206.449219 C 161.199219 207.167969 161.363281 207.558594 161.917969 208.019531 C 165.089844 210.796875 168.230469 213.578125 171.335938 216.425781 C 171.957031 216.980469 172.417969 217.078125 173.167969 216.785156 C 178.238281 214.820312 183.339844 212.925781 188.445312 210.996094 C 189.066406 210.765625 189.6875 210.503906 190.636719 210.113281 C 189.6875 209.882812 189.097656 209.75 188.476562 209.621094 C 187.886719 209.457031 187.265625 209.328125 186.675781 209.128906 C 184.484375 208.441406 184.160156 207.757812 184.910156 205.664062 C 185.828125 203.273438 186.675781 200.886719 187.625 198.269531 Z M 260.109375 88.304688 C 268.875 96.972656 277.867188 105.183594 286.992188 113.425781 C 289.742188 106.457031 288.074219 97.039062 280.519531 90.824219 C 273.878906 85.363281 264.554688 85.492188 260.109375 88.304688 Z M 242.511719 100.929688 C 241.824219 101.617188 241.203125 102.238281 240.582031 102.894531 C 239.304688 104.203125 239.304688 104.167969 240.644531 105.378906 C 246.925781 111.167969 253.207031 116.925781 259.453125 122.746094 C 262.886719 125.921875 266.222656 129.191406 269.660156 132.363281 C 269.921875 132.625 270.640625 132.855469 270.835938 132.691406 C 271.914062 131.839844 272.898438 130.859375 273.910156 129.878906 C 263.378906 120.132812 253.011719 110.582031 242.511719 100.929688 Z M 256.347656 106.917969 C 258.144531 108.550781 260.140625 110.351562 262.199219 112.117188 C 262.398438 112.28125 262.984375 112.28125 263.148438 112.117188 C 265.636719 109.761719 268.089844 107.40625 270.671875 104.921875 C 268.351562 102.699219 266.257812 100.703125 264.03125 98.578125 C 261.414062 101.390625 258.929688 104.105469 256.347656 106.917969 Z M 248.070312 99.460938 C 249.609375 100.832031 251.046875 102.109375 252.421875 103.382812 C 255.167969 100.605469 257.785156 97.921875 260.238281 95.4375 C 258.960938 94.03125 257.621094 92.558594 256.117188 90.921875 C 253.433594 93.769531 250.851562 96.515625 248.070312 99.460938 Z M 280.386719 113.851562 C 277.804688 116.632812 275.316406 119.3125 272.929688 121.863281 C 273.617188 122.617188 274.464844 123.5 275.285156 124.414062 C 275.871094 125.101562 276.296875 124.972656 276.886719 124.414062 C 279.011719 122.289062 281.171875 120.195312 283.332031 118.101562 C 283.59375 117.839844 283.820312 117.515625 284.117188 117.15625 C 282.90625 116.074219 281.761719 115.0625 280.386719 113.851562 Z M 274.203125 108.289062 C 271.523438 110.90625 268.9375 113.425781 266.289062 116.007812 C 267.171875 116.828125 268.023438 117.679688 269.035156 118.625 C 271.652344 115.945312 274.203125 113.328125 276.789062 110.679688 C 275.808594 109.761719 274.957031 108.976562 274.203125 108.289062 Z M 274.203125 108.289062 "/></g><g clip-rule="nonzero" clip-path="url(#4997e0821e)"><g clip-rule="nonzero" clip-path="url(#c736924568)"><g clip-rule="nonzero" clip-path="url(#dc582da551)"><path style=" stroke:none;fill-rule:nonzero;fill:#ff5757;fill-opacity:1;" d="M 53.375 114.535156 C 48.675781 106.15625 41.316406 93.359375 46.210938 84.058594 C 45.980469 102.691406 57.253906 119.425781 71.101562 131.070312 C 91.203125 147.90625 113.851562 162.078125 130.664062 182.515625 C 140.429688 194.136719 149.746094 207.078125 152.0625 222.449219 C 152.332031 224.429688 152.734375 226.433594 152.625 228.457031 C 152.367188 232.246094 146.78125 232.734375 146.011719 228.917969 C 145.347656 220.285156 142.847656 211.269531 138.515625 203.835938 C 126.472656 182.964844 108.636719 166.347656 90.183594 151.1875 C 78.175781 140.910156 64.714844 131.449219 55.738281 118.28125 C 54.90625 117.0625 54.121094 115.816406 53.375 114.535156 Z M 53.375 114.535156 "/></g></g></g><g clip-rule="nonzero" clip-path="url(#b1467e0c6d)"><path style=" stroke:none;fill-rule:nonzero;fill:#00bf63;fill-opacity:1;" d="M 192.097656 51.507812 C 193.300781 50.152344 194.433594 48.820312 195.613281 47.527344 C 199.394531 43.347656 204.019531 41.144531 209.757812 41.746094 C 217.03125 42.503906 223.480469 48.773438 224.679688 56.003906 C 225.613281 61.671875 223.613281 66.1875 219.519531 69.96875 C 218.273438 71.125 217.03125 72.304688 215.785156 73.460938 C 215.496094 73.726562 215.316406 73.925781 215.539062 74.328125 C 215.828125 74.839844 215.652344 75.261719 215.25 75.660156 C 213.871094 77.0625 212.539062 78.507812 211.136719 79.886719 C 210.824219 80.199219 210.335938 80.308594 209.933594 80.507812 C 209.644531 80.664062 209.289062 80.777344 209.089844 81 C 198.304688 92.339844 187.5625 103.703125 176.777344 115.070312 C 172.484375 119.582031 168.191406 124.074219 163.921875 128.613281 C 163.101562 129.480469 162.164062 130.148438 161.03125 130.570312 C 150.800781 134.371094 140.570312 138.199219 130.339844 142.023438 C 129.429688 142.355469 128.519531 142.710938 127.585938 142.980469 C 127.25 143.089844 126.628906 143.132812 126.515625 142.957031 C 126.316406 142.644531 126.226562 142.089844 126.359375 141.734375 C 126.871094 140.175781 127.449219 138.664062 128.027344 137.152344 C 131.652344 127.746094 135.324219 118.359375 138.902344 108.929688 C 139.347656 107.753906 139.972656 106.730469 140.839844 105.816406 C 148.15625 97.96875 155.472656 90.09375 162.8125 82.242188 C 170.128906 74.4375 177.464844 66.675781 184.804688 58.914062 C 185.140625 58.558594 185.226562 58.292969 184.9375 57.847656 C 184.382812 56.980469 184.425781 56.46875 185.140625 55.734375 C 186.316406 54.511719 187.539062 53.3125 188.742188 52.089844 C 189.675781 51.152344 190.742188 50.597656 192.097656 51.507812 Z M 200.929688 73.304688 C 200.640625 73.59375 200.394531 73.792969 200.195312 74.015625 C 195.859375 78.597656 191.542969 83.179688 187.230469 87.78125 C 179.777344 95.742188 172.351562 103.703125 164.902344 111.667969 C 163.699219 112.957031 162.5 114.246094 161.296875 115.515625 C 160.808594 116.023438 160.207031 116.136719 159.5625 115.871094 C 158.898438 115.601562 158.761719 115.023438 158.761719 114.378906 C 158.742188 113.378906 159.453125 112.824219 160.03125 112.199219 C 172.039062 99.347656 184.050781 86.46875 196.058594 73.617188 C 196.859375 72.746094 197.660156 71.902344 198.527344 71.011719 C 197.480469 70.078125 196.503906 69.210938 195.390625 68.210938 C 195.078125 68.589844 194.855469 68.902344 194.589844 69.191406 C 183.070312 81.445312 171.59375 93.695312 160.121094 105.929688 C 158.851562 107.285156 157.585938 108.664062 156.25 109.953125 C 155.605469 110.578125 154.671875 110.441406 154.003906 109.753906 C 153.449219 109.175781 153.449219 108.398438 154.046875 107.707031 C 154.492188 107.21875 154.960938 106.75 155.40625 106.285156 C 167.746094 93.03125 180.113281 79.777344 192.457031 66.5 C 192.609375 66.34375 192.746094 66.144531 192.945312 65.921875 C 191.03125 64.273438 189.1875 62.671875 187.25 60.984375 C 172.351562 76.683594 157.5625 92.320312 142.882812 108.285156 C 143.417969 108.464844 143.707031 108.574219 143.996094 108.664062 C 145.441406 109.042969 146.886719 109.421875 148.332031 109.796875 C 149.378906 110.085938 149.402344 110.109375 149.246094 111.222656 C 149.042969 112.734375 148.890625 114.246094 148.601562 115.734375 C 148.445312 116.558594 148.734375 116.757812 149.445312 116.890625 C 151.46875 117.316406 153.492188 117.78125 155.515625 118.269531 C 156.628906 118.539062 156.941406 119.183594 156.5625 120.273438 C 156.050781 121.785156 155.539062 123.296875 154.984375 124.808594 C 154.804688 125.34375 154.847656 125.632812 155.449219 125.789062 C 157.027344 126.1875 158.585938 126.632812 160.164062 127.011719 C 160.453125 127.078125 160.898438 126.921875 161.097656 126.722656 C 164.902344 122.785156 168.683594 118.847656 172.417969 114.890625 C 182.804688 103.925781 193.167969 92.941406 203.53125 81.976562 C 204.53125 80.910156 205.53125 79.84375 206.597656 78.707031 C 204.730469 76.90625 202.863281 75.128906 200.929688 73.304688 Z M 153.160156 121.050781 C 150.890625 120.5625 148.753906 120.117188 146.621094 119.671875 C 145.0625 119.339844 144.773438 118.960938 145.019531 117.402344 C 145.21875 116.136719 145.417969 114.867188 145.640625 113.601562 C 145.777344 112.957031 145.6875 112.578125 144.929688 112.445312 C 144.042969 112.265625 143.152344 112 142.285156 111.6875 C 141.640625 111.464844 141.328125 111.554688 141.0625 112.246094 C 139.191406 117.046875 137.300781 121.828125 135.390625 126.609375 C 135.191406 127.101562 135.300781 127.367188 135.679688 127.679688 C 137.835938 129.570312 139.972656 131.460938 142.082031 133.394531 C 142.507812 133.773438 142.816406 133.839844 143.328125 133.636719 C 146.777344 132.304688 150.246094 131.015625 153.714844 129.703125 C 154.136719 129.546875 154.558594 129.367188 155.203125 129.101562 C 154.558594 128.945312 154.160156 128.855469 153.738281 128.769531 C 153.335938 128.65625 152.914062 128.566406 152.515625 128.433594 C 151.023438 127.96875 150.800781 127.5 151.3125 126.078125 C 151.9375 124.453125 152.515625 122.832031 153.160156 121.050781 Z M 202.441406 46.285156 C 208.402344 52.175781 214.515625 57.757812 220.722656 63.363281 C 222.589844 58.625 221.457031 52.222656 216.316406 47.996094 C 211.804688 44.28125 205.464844 44.371094 202.441406 46.285156 Z M 190.476562 54.867188 C 190.007812 55.335938 189.585938 55.757812 189.164062 56.203125 C 188.296875 57.089844 188.296875 57.070312 189.207031 57.890625 C 193.476562 61.828125 197.75 65.742188 201.996094 69.703125 C 204.332031 71.859375 206.597656 74.082031 208.933594 76.238281 C 209.113281 76.417969 209.601562 76.574219 209.734375 76.460938 C 210.46875 75.882812 211.136719 75.214844 211.824219 74.550781 C 204.664062 67.921875 197.613281 61.429688 190.476562 54.867188 Z M 199.882812 58.9375 C 201.105469 60.050781 202.464844 61.273438 203.863281 62.472656 C 203.996094 62.585938 204.398438 62.585938 204.507812 62.472656 C 206.199219 60.871094 207.867188 59.269531 209.625 57.582031 C 208.046875 56.070312 206.621094 54.710938 205.109375 53.265625 C 203.332031 55.179688 201.640625 57.023438 199.882812 58.9375 Z M 194.257812 53.867188 C 195.300781 54.800781 196.28125 55.667969 197.214844 56.535156 C 199.082031 54.644531 200.863281 52.820312 202.53125 51.132812 C 201.664062 50.175781 200.75 49.175781 199.726562 48.0625 C 197.902344 49.996094 196.148438 51.867188 194.257812 53.867188 Z M 216.230469 63.652344 C 214.472656 65.542969 212.78125 67.367188 211.160156 69.101562 C 211.625 69.613281 212.203125 70.210938 212.757812 70.835938 C 213.160156 71.300781 213.449219 71.214844 213.847656 70.835938 C 215.296875 69.390625 216.761719 67.964844 218.230469 66.542969 C 218.410156 66.367188 218.5625 66.144531 218.765625 65.898438 C 217.941406 65.164062 217.164062 64.476562 216.230469 63.652344 Z M 212.027344 59.871094 C 210.203125 61.652344 208.445312 63.363281 206.644531 65.121094 C 207.246094 65.675781 207.824219 66.253906 208.511719 66.898438 C 210.292969 65.074219 212.027344 63.296875 213.78125 61.496094 C 213.117188 60.871094 212.539062 60.339844 212.027344 59.871094 Z M 212.027344 59.871094 "/></g><g clip-rule="nonzero" clip-path="url(#49ae3c36d8)"><g clip-rule="nonzero" clip-path="url(#53c9ab189e)"><g clip-rule="nonzero" clip-path="url(#473f41823f)"><path style=" stroke:none;fill-rule:nonzero;fill:#00bf63;fill-opacity:1;" d="M 61.898438 64.039062 C 58.714844 58.359375 53.726562 49.6875 57.042969 43.382812 C 56.886719 56.011719 64.527344 67.351562 73.910156 75.242188 C 87.535156 86.652344 102.882812 96.257812 114.277344 110.105469 C 120.894531 117.980469 127.207031 126.75 128.777344 137.167969 C 128.960938 138.511719 129.230469 139.867188 129.160156 141.238281 C 128.984375 143.808594 125.199219 144.136719 124.675781 141.550781 C 124.226562 135.703125 122.53125 129.589844 119.597656 124.554688 C 111.4375 110.410156 99.347656 99.148438 86.84375 88.875 C 78.707031 81.910156 69.585938 75.5 63.5 66.574219 C 62.9375 65.75 62.40625 64.90625 61.898438 64.039062 Z M 61.898438 64.039062 "/></g></g></g><g clip-rule="nonzero" clip-path="url(#073dfa6d05)"><path style=" stroke:none;fill-rule:nonzero;fill:#5271ff;fill-opacity:1;" d="M 288.054688 153.589844 C 290.289062 151.066406 292.398438 148.582031 294.589844 146.183594 C 301.625 138.40625 310.226562 134.308594 320.902344 135.425781 C 334.429688 136.832031 346.425781 148.5 348.660156 161.945312 C 350.398438 172.492188 346.671875 180.890625 339.0625 187.921875 C 336.746094 190.074219 334.429688 192.265625 332.113281 194.417969 C 331.574219 194.914062 331.242188 195.289062 331.65625 196.03125 C 332.195312 196.984375 331.863281 197.769531 331.117188 198.515625 C 328.554688 201.121094 326.070312 203.808594 323.464844 206.375 C 322.886719 206.953125 321.976562 207.160156 321.230469 207.53125 C 320.695312 207.820312 320.03125 208.027344 319.660156 208.441406 C 299.597656 229.539062 279.617188 250.679688 259.550781 271.820312 C 251.566406 280.214844 243.582031 288.574219 235.640625 297.011719 C 234.109375 298.625 232.371094 299.867188 230.261719 300.652344 C 211.234375 307.726562 192.203125 314.839844 173.175781 321.957031 C 171.480469 322.578125 169.78125 323.238281 168.046875 323.734375 C 167.425781 323.941406 166.265625 324.023438 166.058594 323.695312 C 165.6875 323.113281 165.523438 322.082031 165.769531 321.417969 C 166.722656 318.523438 167.796875 315.710938 168.871094 312.898438 C 175.617188 295.398438 182.441406 277.941406 189.101562 260.402344 C 189.929688 258.207031 191.085938 256.304688 192.699219 254.609375 C 206.3125 240.007812 219.921875 225.363281 233.574219 210.757812 C 247.183594 196.238281 260.835938 181.800781 274.484375 167.363281 C 275.105469 166.703125 275.273438 166.207031 274.734375 165.378906 C 273.699219 163.765625 273.78125 162.8125 275.105469 161.449219 C 277.296875 159.171875 279.574219 156.9375 281.808594 154.664062 C 283.546875 152.925781 285.53125 151.890625 288.054688 153.589844 Z M 304.476562 194.128906 C 303.941406 194.667969 303.484375 195.039062 303.113281 195.453125 C 295.046875 203.972656 287.019531 212.496094 278.996094 221.058594 C 265.136719 235.871094 251.320312 250.679688 237.460938 265.488281 C 235.226562 267.886719 232.992188 270.289062 230.757812 272.644531 C 229.847656 273.597656 228.734375 273.804688 227.53125 273.308594 C 226.292969 272.8125 226.042969 271.734375 226.042969 270.535156 C 226.003906 268.675781 227.324219 267.640625 228.402344 266.480469 C 250.742188 242.570312 273.078125 218.617188 295.417969 194.707031 C 296.90625 193.09375 298.398438 191.523438 300.011719 189.867188 C 298.066406 188.128906 296.246094 186.515625 294.175781 184.65625 C 293.597656 185.359375 293.183594 185.9375 292.6875 186.476562 C 271.257812 209.269531 249.914062 232.0625 228.566406 254.816406 C 226.207031 257.339844 223.851562 259.90625 221.367188 262.304688 C 220.167969 263.460938 218.433594 263.214844 217.191406 261.929688 C 216.15625 260.855469 216.15625 259.40625 217.273438 258.125 C 218.101562 257.214844 218.96875 256.347656 219.796875 255.476562 C 242.757812 230.824219 265.757812 206.167969 288.714844 181.46875 C 289.007812 181.179688 289.253906 180.808594 289.625 180.394531 C 286.070312 177.332031 282.636719 174.355469 279.035156 171.210938 C 251.320312 200.417969 223.808594 229.5 196.507812 259.203125 C 197.5 259.53125 198.039062 259.738281 198.574219 259.90625 C 201.265625 260.609375 203.953125 261.3125 206.640625 262.015625 C 208.585938 262.550781 208.628906 262.59375 208.339844 264.660156 C 207.964844 267.476562 207.675781 270.289062 207.136719 273.058594 C 206.847656 274.589844 207.386719 274.960938 208.710938 275.210938 C 212.476562 275.996094 216.238281 276.867188 220.003906 277.777344 C 222.070312 278.273438 222.652344 279.472656 221.949219 281.5 C 220.996094 284.3125 220.046875 287.125 219.011719 289.9375 C 218.679688 290.929688 218.761719 291.46875 219.878906 291.757812 C 222.816406 292.503906 225.710938 293.328125 228.648438 294.035156 C 229.1875 294.15625 230.015625 293.867188 230.386719 293.496094 C 237.460938 286.171875 244.492188 278.851562 251.445312 271.488281 C 270.761719 251.09375 290.039062 230.65625 309.316406 210.261719 C 311.179688 208.277344 313.039062 206.292969 315.027344 204.179688 C 311.550781 200.832031 308.078125 197.519531 304.476562 194.128906 Z M 215.617188 282.945312 C 211.398438 282.035156 207.429688 281.210938 203.457031 280.382812 C 200.5625 279.761719 200.023438 279.058594 200.476562 276.164062 C 200.851562 273.804688 201.222656 271.445312 201.636719 269.089844 C 201.882812 267.886719 201.71875 267.183594 200.3125 266.9375 C 198.65625 266.605469 197.003906 266.109375 195.390625 265.53125 C 194.191406 265.117188 193.609375 265.28125 193.113281 266.566406 C 189.640625 275.5 186.125 284.394531 182.566406 293.289062 C 182.191406 294.199219 182.398438 294.695312 183.101562 295.273438 C 187.117188 298.789062 191.085938 302.308594 195.015625 305.90625 C 195.804688 306.609375 196.382812 306.734375 197.332031 306.359375 C 203.746094 303.878906 210.199219 301.480469 216.652344 299.039062 C 217.4375 298.75 218.226562 298.417969 219.425781 297.921875 C 218.226562 297.632812 217.480469 297.46875 216.695312 297.300781 C 215.949219 297.09375 215.164062 296.929688 214.417969 296.679688 C 211.648438 295.8125 211.234375 294.941406 212.183594 292.296875 C 213.34375 289.277344 214.417969 286.257812 215.617188 282.945312 Z M 307.289062 143.867188 C 318.378906 154.828125 329.753906 165.210938 341.296875 175.636719 C 344.769531 166.824219 342.660156 154.910156 333.105469 147.050781 C 324.707031 140.144531 312.917969 140.308594 307.289062 143.867188 Z M 285.035156 159.835938 C 284.164062 160.703125 283.378906 161.488281 282.59375 162.316406 C 280.980469 163.972656 280.980469 163.929688 282.675781 165.460938 C 290.621094 172.78125 298.5625 180.0625 306.464844 187.425781 C 310.808594 191.441406 315.027344 195.578125 319.371094 199.589844 C 319.703125 199.921875 320.613281 200.210938 320.859375 200.003906 C 322.226562 198.925781 323.464844 197.6875 324.75 196.445312 C 311.425781 184.117188 298.3125 172.039062 285.035156 159.835938 Z M 302.535156 167.40625 C 304.808594 169.472656 307.332031 171.75 309.9375 173.984375 C 310.1875 174.1875 310.929688 174.1875 311.136719 173.984375 C 314.28125 171.003906 317.382812 168.027344 320.652344 164.882812 C 317.714844 162.070312 315.066406 159.546875 312.253906 156.855469 C 308.945312 160.414062 305.800781 163.847656 302.535156 167.40625 Z M 292.066406 157.972656 C 294.011719 159.710938 295.832031 161.324219 297.570312 162.9375 C 301.042969 159.421875 304.355469 156.027344 307.457031 152.886719 C 305.84375 151.105469 304.148438 149.246094 302.242188 147.175781 C 298.851562 150.773438 295.582031 154.25 292.066406 157.972656 Z M 332.9375 176.175781 C 329.671875 179.691406 326.527344 183.082031 323.507812 186.308594 C 324.375 187.261719 325.453125 188.378906 326.484375 189.535156 C 327.230469 190.40625 327.769531 190.242188 328.511719 189.535156 C 331.203125 186.847656 333.933594 184.199219 336.664062 181.554688 C 336.992188 181.222656 337.28125 180.808594 337.65625 180.351562 C 336.125 178.988281 334.675781 177.707031 332.9375 176.175781 Z M 325.121094 169.140625 C 321.726562 172.453125 318.460938 175.636719 315.109375 178.90625 C 316.226562 179.941406 317.300781 181.015625 318.585938 182.214844 C 321.894531 178.824219 325.121094 175.511719 328.386719 172.164062 C 327.148438 171.003906 326.070312 170.011719 325.121094 169.140625 Z M 325.121094 169.140625 "/></g><g clip-rule="nonzero" clip-path="url(#d474befce7)"><g clip-rule="nonzero" clip-path="url(#75659f160c)"><g clip-rule="nonzero" clip-path="url(#79fd66cb8d)"><path style=" stroke:none;fill-rule:nonzero;fill:#5271ff;fill-opacity:1;" d="M 45.792969 177.035156 C 39.851562 166.433594 30.539062 150.242188 36.730469 138.476562 C 36.441406 162.050781 50.699219 183.222656 68.222656 197.953125 C 93.652344 219.25 122.304688 237.183594 143.578125 263.039062 C 155.933594 277.742188 167.71875 294.113281 170.648438 313.558594 C 170.992188 316.066406 171.496094 318.597656 171.359375 321.160156 C 171.035156 325.953125 163.964844 326.570312 162.996094 321.742188 C 162.152344 310.824219 158.992188 299.414062 153.507812 290.015625 C 138.277344 263.605469 115.710938 242.582031 92.363281 223.40625 C 77.171875 210.398438 60.144531 198.433594 48.785156 181.769531 C 47.734375 180.230469 46.738281 178.65625 45.792969 177.035156 Z M 45.792969 177.035156 "/></g></g></g></g></svg>